<svg version="1.1" viewBox="0.0 0.0 677.8556430446195 164.61417322834646" fill="none" stroke="none" stroke-linecap="square" stroke-miterlimit="10" xmlns:xlink="http://www.w3.org/1999/xlink" xmlns="http://www.w3.org/2000/svg"><clipPath id="p.0"><path d="m0 0l677.85565 0l0 164.61417l-677.85565 0l0 -164.61417z" clip-rule="nonzero"/></clipPath><g clip-path="url(#p.0)"><path fill="#000000" fill-opacity="0.0" d="m0 0l677.85565 0l0 164.61417l-677.85565 0z" fill-rule="evenodd"/><path fill="#eeeeee" d="m454.71652 31.994276l0 0c0 -14.055277 11.3940735 -25.44933 25.44934 -25.44933l167.40054 0c6.7495728 0 13.222717 2.681261 17.995422 7.4539356c4.772644 4.7726755 7.4539185 11.2458105 7.4539185 17.995392l0 101.79425c0 14.055283 -11.394043 25.449326 -25.44934 25.449326l-167.40054 0c-14.055267 0 -25.44934 -11.394043 -25.44934 -25.449326z" fill-rule="evenodd"/><path stroke="#595959" stroke-width="1.0" stroke-linejoin="round" stroke-linecap="butt" d="m454.71652 31.994276l0 0c0 -14.055277 11.3940735 -25.44933 25.44934 -25.44933l167.40054 0c6.7495728 0 13.222717 2.681261 17.995422 7.4539356c4.772644 4.7726755 7.4539185 11.2458105 7.4539185 17.995392l0 101.79425c0 14.055283 -11.394043 25.449326 -25.44934 25.449326l-167.40054 0c-14.055267 0 -25.44934 -11.394043 -25.44934 -25.449326z" fill-rule="evenodd"/><path fill="#000000" d="m561.5676 41.215675q-1.4375 0 -2.5625 -0.65625q-1.109375 -0.671875 -1.734375 -1.84375q-0.609375 -1.1875 -0.609375 -2.734375l0 -8.421877l1.59375 0l0 8.484377q0 1.625 0.859375 2.640625q0.859375 1.015625 2.453125 1.015625q1.609375 0 2.46875 -1.015625q0.875 -1.015625 0.875 -2.640625l0 -8.484377l1.578125 0l0 8.421877q0 1.546875 -0.59375 2.75q-0.578125 1.1875 -1.703125 1.84375q-1.109375 0.640625 -2.625 0.640625zm7.60437 -13.656252l1.578125 0l0 13.359377l-1.578125 0l0 -13.359377z" fill-rule="nonzero"/><path fill="#eeeeee" d="m205.68767 31.994276l0 0c0 -14.055277 11.394043 -25.44933 25.449326 -25.44933l167.40054 0c6.7496033 0 13.222717 2.681261 17.995392 7.4539356c4.7726746 4.7726755 7.453949 11.2458105 7.453949 17.995392l0 101.79425c0 14.055283 -11.394043 25.449326 -25.44934 25.449326l-167.40054 0c-14.055283 0 -25.449326 -11.394043 -25.449326 -25.449326z" fill-rule="evenodd"/><path stroke="#595959" stroke-width="1.0" stroke-linejoin="round" stroke-linecap="butt" d="m205.68767 31.994276l0 0c0 -14.055277 11.394043 -25.44933 25.449326 -25.44933l167.40054 0c6.7496033 0 13.222717 2.681261 17.995392 7.4539356c4.7726746 4.7726755 7.453949 11.2458105 7.453949 17.995392l0 101.79425c0 14.055283 -11.394043 25.449326 -25.44934 25.449326l-167.40054 0c-14.055283 0 -25.449326 -11.394043 -25.449326 -25.449326z" fill-rule="evenodd"/><path fill="#000000" d="m268.60248 27.559423l1.75 0l3.296875 9.687502l0.453125 1.328125l0.078125 0l0.46875 -1.328125l3.4375 -9.687502l1.765625 0l-4.890625 13.359377l-1.625 0l-4.734375 -13.359377zm13.242493 2.09375q-0.46875 0 -0.8125 -0.328125q-0.328125 -0.34375 -0.328125 -0.8125q0 -0.484375 0.328125 -0.8125q0.34375 -0.328125 0.8125 -0.328125q0.484375 0 0.8125 0.328125q0.328125 0.328125 0.328125 0.8125q0 0.46875 -0.328125 0.8125q-0.328125 0.328125 -0.8125 0.328125zm-0.78125 1.75l1.578125 0l0 9.515627l-1.578125 0l0 -9.515627zm8.201111 9.812502q-1.359375 0 -2.4375 -0.640625q-1.078125 -0.65625 -1.6875 -1.796875q-0.609375 -1.15625 -0.609375 -2.59375q0 -1.359375 0.5625 -2.53125q0.578125 -1.171875 1.625 -1.8593769q1.0625 -0.6875 2.421875 -0.6875q1.390625 0 2.421875 0.625q1.03125 0.6250019 1.578125 1.7343769q0.546875 1.09375 0.546875 2.515625q0 0.21875 -0.03125 0.484375l-7.546875 0q0.0625 1.078125 0.53125 1.828125q0.46875 0.734375 1.1875 1.109375q0.71875 0.375 1.5 0.375q1.859375 0 2.8125 -1.71875l1.34375 0.65625q-0.59375 1.140625 -1.65625 1.828125q-1.0625 0.671875 -2.5625 0.671875zm2.75 -6.0625q-0.046875 -0.59375 -0.34375 -1.1875q-0.296875 -0.609375 -0.9375 -1.015625q-0.625 -0.40625 -1.59375 -0.40625q-1.125 0 -1.90625 0.71875q-0.78125 0.71875 -1.03125 1.890625l5.8125 0zm2.285553 -3.750002l1.640625 0l2.265625 7.515627l0.015625 0l2.40625 -7.515627l1.625 0l2.40625 7.500002l0.015625 0l2.265625 -7.500002l1.59375 0l-3.078125 9.515627l-1.59375 0l-2.46875 -7.59375l-2.4375 7.59375l-1.59375 0l-3.0625 -9.515627zm15.870911 -3.84375l2.28125 0l4.265625 10.953127l0.0625 0l4.265625 -10.953127l2.28125 0l0 13.359377l-1.5625 0l0 -8.484375l0.078125 -2.546877l-0.078125 0l-4.359375 11.031252l-1.3125 0l-4.359375 -11.031252l-0.078125 0l0.078125 2.546877l0 8.484375l-1.5625 0l0 -13.359377zm20.032135 13.656252q-1.40625 0 -2.53125 -0.671875q-1.109375 -0.671875 -1.734375 -1.828125q-0.625 -1.15625 -0.625 -2.546875q0 -1.40625 0.625 -2.5625q0.625 -1.15625 1.734375 -1.8281269q1.125 -0.671875 2.53125 -0.671875q1.390625 0 2.515625 0.671875q1.125 0.6718769 1.75 1.8281269q0.625 1.15625 0.625 2.5625q0 1.390625 -0.625 2.546875q-0.625 1.15625 -1.75 1.828125q-1.125 0.671875 -2.515625 0.671875zm0 -1.4375q0.875 0 1.625 -0.4375q0.765625 -0.4375 1.21875 -1.25q0.453125 -0.828125 0.453125 -1.921875q0 -1.109375 -0.453125 -1.921875q-0.453125 -0.828125 -1.21875 -1.265625q-0.75 -0.4375 -1.625 -0.4375q-0.875 0 -1.640625 0.4375q-0.765625 0.4375 -1.234375 1.265625q-0.453125 0.8125 -0.453125 1.921875q0 1.09375 0.453125 1.921875q0.46875 0.8125 1.234375 1.25q0.765625 0.4375 1.640625 0.4375zm10.775391 1.4375q-1.28125 0 -2.328125 -0.640625q-1.03125 -0.65625 -1.625 -1.796875q-0.59375 -1.15625 -0.59375 -2.609375q0 -1.4375 0.59375 -2.59375q0.59375 -1.15625 1.625 -1.8125019q1.046875 -0.65625 2.328125 -0.65625q1.0937195 0 1.9374695 0.5q0.859375 0.4843769 1.3125 1.2187519l0.078125 0l-0.078125 -1.3281269l0 -3.9375l1.59375 0l0 13.359377l-1.515625 0l0 -1.40625l-0.078125 0q-0.453125 0.71875 -1.3125 1.21875q-0.84375 0.484375 -1.9374695 0.484375zm0.17184448 -1.4375q0.84375 0 1.5625 -0.4375q0.71875 -0.453125 1.15625 -1.265625q0.4375 -0.828125 0.4375 -1.90625q0 -1.09375 -0.4375 -1.90625q-0.4375 -0.828125 -1.15625 -1.265625q-0.71875 -0.453125 -1.5625 -0.453125q-0.8124695 0 -1.5468445 0.453125q-0.734375 0.4375 -1.171875 1.265625q-0.4375 0.828125 -0.4375 1.90625q0 1.0625 0.4375 1.890625q0.4375 0.828125 1.171875 1.28125q0.734375 0.4375 1.5468445 0.4375zm11.153351 1.4375q-1.359375 0 -2.4375 -0.640625q-1.078125 -0.65625 -1.6875 -1.796875q-0.609375 -1.15625 -0.609375 -2.59375q0 -1.359375 0.5625 -2.53125q0.578125 -1.171875 1.625 -1.8593769q1.0625 -0.6875 2.421875 -0.6875q1.390625 0 2.421875 0.625q1.03125 0.6250019 1.578125 1.7343769q0.546875 1.09375 0.546875 2.515625q0 0.21875 -0.03125 0.484375l-7.546875 0q0.0625 1.078125 0.53125 1.828125q0.46875 0.734375 1.1875 1.109375q0.71875 0.375 1.5 0.375q1.859375 0 2.8125 -1.71875l1.34375 0.65625q-0.59375 1.140625 -1.65625 1.828125q-1.0625 0.671875 -2.5625 0.671875zm2.75 -6.0625q-0.046875 -0.59375 -0.34375 -1.1875q-0.296875 -0.609375 -0.9375 -1.015625q-0.625 -0.40625 -1.59375 -0.40625q-1.125 0 -1.90625 0.71875q-0.78125 0.71875 -1.03125 1.890625l5.8125 0zm3.519104 -7.593752l1.59375 0l0 13.359377l-1.59375 0l0 -13.359377z" fill-rule="nonzero"/><path fill="#eeeeee" d="m6.3858266 31.98476l0 0c0 -14.055275 11.3940525 -25.449327 25.44933 -25.449327l121.69977 0c6.7495728 0 13.222717 2.6812606 17.995392 7.453935c4.7726746 4.7726746 7.4539337 11.245811 7.4539337 17.995392l0 101.794266c0 14.055267 -11.394058 25.449326 -25.449326 25.449326l-121.69977 0c-14.055277 0 -25.44933 -11.394058 -25.44933 -25.449326z" fill-rule="evenodd"/><path stroke="#595959" stroke-width="1.0" stroke-linejoin="round" stroke-linecap="butt" d="m6.3858266 31.98476l0 0c0 -14.055275 11.3940525 -25.449327 25.44933 -25.449327l121.69977 0c6.7495728 0 13.222717 2.6812606 17.995392 7.453935c4.7726746 4.7726746 7.4539337 11.245811 7.4539337 17.995392l0 101.794266c0 14.055267 -11.394058 25.449326 -25.449326 25.449326l-121.69977 0c-14.055277 0 -25.44933 -11.394058 -25.44933 -25.449326z" fill-rule="evenodd"/><path fill="#000000" d="m48.850536 27.54991l4.5 0q1.109375 0 2.0625 0.515625q0.953125 0.5 1.515625 1.40625q0.578125 0.890625 0.578125 2.03125q0 0.9375019 -0.421875 1.7500019q-0.421875 0.796875 -1.171875 1.34375q-0.734375 0.53125 -1.625 0.71875l-0.03125 0.046875l3.765625 5.46875l0 0.078125l-1.859375 0l-3.640625 -5.453125l-2.09375 0l0 5.453125l-1.578125 0l0 -13.359377zm4.40625 6.437502q0.703125 0 1.296875 -0.3125q0.609375 -0.328125 0.96875 -0.890625q0.375 -0.5625 0.375 -1.2812519q0 -0.609375 -0.328125 -1.171875q-0.3125 -0.5625 -0.890625 -0.90625q-0.5625 -0.359375 -1.296875 -0.359375l-2.953125 0l0 4.921877l2.828125 0zm10.245911 7.21875q-1.359375 0 -2.4375 -0.640625q-1.078125 -0.65625 -1.6875 -1.796875q-0.609375 -1.15625 -0.609375 -2.59375q0 -1.359375 0.5625 -2.53125q0.578125 -1.171875 1.625 -1.8593769q1.0625 -0.6875 2.421875 -0.6875q1.3906288 0 2.4218788 0.625q1.03125 0.6250019 1.578125 1.7343769q0.546875 1.09375 0.546875 2.515625q0 0.21875 -0.03125 0.484375l-7.546879 0q0.0625 1.078125 0.53125 1.828125q0.46875 0.734375 1.1875 1.109375q0.71875 0.375 1.5 0.375q1.8593788 0 2.8125038 -1.71875l1.34375 0.65625q-0.59375 1.140625 -1.65625 1.828125q-1.0625 0.671875 -2.5625038 0.671875zm2.7500038 -6.0625q-0.046875 -0.59375 -0.34375 -1.1875q-0.296875 -0.609375 -0.9375 -1.015625q-0.625 -0.40625 -1.5937538 -0.40625q-1.125 0 -1.90625 0.71875q-0.78125 0.71875 -1.03125 1.890625l5.812504 0zm3.4409637 -3.750002l1.515625 0l0 1.4218769l0.078125 0q0.421875 -0.734375 1.28125 -1.2187519q0.875 -0.5 1.96875 -0.5q1.28125 0 2.3125 0.65625q1.046875 0.6562519 1.640625 1.8125019q0.59375 1.15625 0.59375 2.59375q0 1.453125 -0.59375 2.609375q-0.59375 1.140625 -1.640625 1.796875q-1.03125 0.640625 -2.3125 0.640625q-1.09375 0 -1.96875 -0.484375q-0.859375 -0.5 -1.28125 -1.21875l-0.078125 0l0.078125 1.3125l0 4.125l-1.59375 0l0 -13.546877zm4.671875 8.375002q0.8125 0 1.546875 -0.4375q0.734375 -0.453125 1.15625 -1.265625q0.4375 -0.828125 0.4375 -1.90625q0 -1.09375 -0.4375 -1.90625q-0.421875 -0.828125 -1.15625 -1.265625q-0.734375 -0.453125 -1.546875 -0.453125q-0.84375 0 -1.5625 0.453125q-0.71875 0.4375 -1.15625 1.265625q-0.4375 0.8125 -0.4375 1.90625q0 1.078125 0.4375 1.90625q0.4375 0.8125 1.15625 1.265625q0.71875 0.4375 1.5625 0.4375zm10.953308 1.4375q-1.40625 0 -2.53125 -0.671875q-1.109375 -0.671875 -1.734375 -1.828125q-0.625 -1.15625 -0.625 -2.546875q0 -1.40625 0.625 -2.5625q0.625 -1.15625 1.734375 -1.8281269q1.125 -0.671875 2.53125 -0.671875q1.390625 0 2.515625 0.671875q1.125 0.6718769 1.75 1.8281269q0.625 1.15625 0.625 2.5625q0 1.390625 -0.625 2.546875q-0.625 1.15625 -1.75 1.828125q-1.125 0.671875 -2.515625 0.671875zm0 -1.4375q0.875 0 1.625 -0.4375q0.765625 -0.4375 1.21875 -1.25q0.453125 -0.828125 0.453125 -1.921875q0 -1.109375 -0.453125 -1.921875q-0.453125 -0.828125 -1.21875 -1.265625q-0.75 -0.4375 -1.625 -0.4375q-0.875 0 -1.640625 0.4375q-0.765625 0.4375 -1.234375 1.265625q-0.453125 0.8125 -0.453125 1.921875q0 1.09375 0.453125 1.921875q0.46875 0.8125 1.234375 1.25q0.765625 0.4375 1.640625 0.4375zm9.963287 1.4375q-1.53125 0 -2.5625 -0.71875q-1.015625 -0.71875 -1.453125 -1.828125l1.421875 -0.640625q0.34375 0.859375 1.046875 1.328125q0.703125 0.46875 1.546875 0.46875q0.890625 0 1.515625 -0.359375q0.640625 -0.375 0.640625 -1.046875q0 -0.59375 -0.5 -0.953125q-0.5 -0.375 -1.578125 -0.625l-1.15625 -0.3125q-1.140625 -0.28125 -1.875 -0.9375q-0.71875 -0.671875 -0.71875 -1.75q0 -0.8125 0.484375 -1.4375q0.5 -0.6250019 1.3125 -0.9531269q0.828125 -0.34375 1.78125 -0.34375q1.25 0 2.21875 0.546875q0.984375 0.5312519 1.390625 1.5000019l-1.375 0.640625q-0.640625 -1.265625 -2.25 -1.265625q-0.796875 0 -1.390625 0.359375q-0.578125 0.359375 -0.578125 0.921875q0 0.53125 0.40625 0.859375q0.421875 0.3125 1.234375 0.515625l1.390625 0.359375q1.390625 0.359375 2.09375 1.0625q0.71875 0.6875 0.71875 1.703125q0 0.875 -0.515625 1.546875q-0.5 0.65625 -1.359375 1.015625q-0.84375 0.34375 -1.890625 0.34375zm6.340439 -11.562502q-0.46875 0 -0.8125 -0.328125q-0.328125 -0.34375 -0.328125 -0.8125q0 -0.484375 0.328125 -0.8125q0.34375 -0.328125 0.8125 -0.328125q0.484375 0 0.8125 0.328125q0.328125 0.328125 0.328125 0.8125q0 0.46875 -0.328125 0.8125q-0.328125 0.328125 -0.8125 0.328125zm-0.78125 1.75l1.578125 0l0 9.515627l-1.578125 0l0 -9.515627zm7.6229706 9.671877q-0.578125 0 -1.078125 -0.1875q-0.484375 -0.1875 -0.828125 -0.515625q-0.734375 -0.703125 -0.734375 -1.953125l0 -5.578125l-1.671875 0l0 -1.4375019l1.671875 0l0 -2.6875l1.578125 0l0 2.6875l2.328125 0l0 1.4375019l-2.328125 0l0 5.1875q0 0.78125 0.296875 1.15625q0.359375 0.40625 1.03125 0.40625q0.578125 0 1.046875 -0.3125l0 1.546875q-0.28125 0.125 -0.578125 0.1875q-0.28125 0.0625 -0.734375 0.0625zm7.1519012 0.140625q-1.40625 0 -2.53125 -0.671875q-1.109375 -0.671875 -1.734375 -1.828125q-0.625 -1.15625 -0.625 -2.546875q0 -1.40625 0.625 -2.5625q0.625 -1.15625 1.734375 -1.8281269q1.125 -0.671875 2.53125 -0.671875q1.390625 0 2.515625 0.671875q1.125 0.6718769 1.75 1.8281269q0.625 1.15625 0.625 2.5625q0 1.390625 -0.625 2.546875q-0.625 1.15625 -1.75 1.828125q-1.125 0.671875 -2.515625 0.671875zm0 -1.4375q0.875 0 1.625 -0.4375q0.765625 -0.4375 1.21875 -1.25q0.453125 -0.828125 0.453125 -1.921875q0 -1.109375 -0.453125 -1.921875q-0.453125 -0.828125 -1.21875 -1.265625q-0.75 -0.4375 -1.625 -0.4375q-0.875 0 -1.640625 0.4375q-0.765625 0.4375 -1.234375 1.265625q-0.453125 0.8125 -0.453125 1.921875q0 1.09375 0.453125 1.921875q0.46875 0.8125 1.234375 1.25q0.765625 0.4375 1.640625 0.4375zm6.5418396 -8.375002l1.515625 0l0 1.5312519l0.078125 0q0.28125 -0.78125 1.078125 -1.2968769q0.796875 -0.515625 1.671875 -0.515625q0.65625 0 1.125 0.1875l0 1.7187519q-0.59375 -0.296875 -1.34375 -0.296875q-0.6875 0 -1.265625 0.390625q-0.578125 0.390625 -0.921875 1.0625q-0.34375 0.65625 -0.34375 1.421875l0 5.3125l-1.59375 0l0 -9.515627zm10.313004 8.921877l-3.921875 -8.921877l1.703125 0l2.984375 7.078127l0.046875 0l2.875 -7.078127l1.71875 0l-5.890625 13.546877l-1.640625 0l2.125 -4.625z" fill-rule="nonzero"/><path fill="#b6d7a8" d="m17.031511 62.73111l0 0c0 -3.809536 3.0882397 -6.8977776 6.8977757 -6.8977776l121.10208 0c1.8294067 0 3.5838776 0.72673035 4.877472 2.0203133c1.2935791 1.2935829 2.0203094 3.0480614 2.0203094 4.8774643l0 27.590271c0 3.8095398 -3.0882416 6.8977814 -6.8977814 6.8977814l-121.10208 0c-3.809536 0 -6.8977757 -3.0882416 -6.8977757 -6.8977814z" fill-rule="evenodd"/><path stroke="#595959" stroke-width="1.0" stroke-linejoin="round" stroke-linecap="butt" d="m17.031511 62.73111l0 0c0 -3.809536 3.0882397 -6.8977776 6.8977757 -6.8977776l121.10208 0c1.8294067 0 3.5838776 0.72673035 4.877472 2.0203133c1.2935791 1.2935829 2.0203094 3.0480614 2.0203094 4.8774643l0 27.590271c0 3.8095398 -3.0882416 6.8977814 -6.8977814 6.8977814l-121.10208 0c-3.809536 0 -6.8977757 -3.0882416 -6.8977757 -6.8977814z" fill-rule="evenodd"/><path fill="#000000" d="m44.086025 71.77937l3.21875 0q0.796875 0 1.46875 0.359375q0.6875 0.359375 1.09375 1.015625q0.40625 0.640625 0.40625 1.453125q0 0.8125 -0.40625 1.46875q-0.40625 0.640625 -1.09375 1.0q-0.671875 0.359375 -1.46875 0.359375l-2.078125 0l0 3.890625l-1.140625 0l0 -9.546875zm3.25 4.578125q0.53125 0 0.9375 -0.25q0.40625 -0.265625 0.625 -0.65625q0.234375 -0.40625 0.234375 -0.84375q0 -0.4375 -0.234375 -0.828125q-0.21875 -0.40625 -0.625 -0.65625q-0.40625 -0.265625 -0.9375 -0.265625l-2.109375 0l0 3.5l2.109375 0zm6.113434 5.1875q-0.75 0 -1.34375 -0.296875q-0.578125 -0.296875 -0.90625 -0.8125q-0.3125 -0.515625 -0.3125 -1.15625q0 -1.078125 0.8125 -1.6875q0.8125 -0.609375 2.046875 -0.609375q0.625 0 1.140625 0.140625q0.53125 0.125 0.8125 0.296875l0 -0.40625q0 -0.765625 -0.53125 -1.21875q-0.53125 -0.46875 -1.34375 -0.46875q-0.5625 0 -1.046875 0.25q-0.484375 0.25 -0.765625 0.6875l-0.859375 -0.640625q0.40625 -0.609375 1.109375 -0.953125q0.703125 -0.359375 1.5625 -0.359375q1.375 0 2.15625 0.734375q0.796875 0.71875 0.796875 1.96875l0 4.3125l-1.078125 0l0 -0.96875l-0.046875 0q-0.296875 0.484375 -0.890625 0.84375q-0.578125 0.34375 -1.3125 0.34375zm0.109375 -1.0q0.5625 0 1.046875 -0.296875q0.5 -0.296875 0.796875 -0.78125q0.296875 -0.5 0.296875 -1.09375q-0.328125 -0.203125 -0.796875 -0.328125q-0.453125 -0.140625 -0.984375 -0.140625q-0.921875 0 -1.40625 0.390625q-0.46875 0.375 -0.46875 0.984375q0 0.5625 0.421875 0.921875q0.4375 0.34375 1.09375 0.34375zm7.713669 3.875q-1.203125 0 -1.984375 -0.5625q-0.78125 -0.5625 -1.046875 -1.34375l1.046875 -0.4375q0.203125 0.578125 0.734375 0.9375q0.53125 0.375 1.25 0.375q1.046875 0 1.625 -0.609375q0.578125 -0.609375 0.578125 -1.734375l0 -0.765625l-0.046875 0q-0.328125 0.53125 -0.9375 0.859375q-0.609375 0.328125 -1.375 0.328125q-0.890625 0 -1.625 -0.453125q-0.71875 -0.453125 -1.140625 -1.265625q-0.421875 -0.828125 -0.421875 -1.859375q0 -1.03125 0.421875 -1.84375q0.421875 -0.828125 1.140625 -1.28125q0.734375 -0.453125 1.625 -0.453125q0.765625 0 1.375 0.328125q0.609375 0.328125 0.9375 0.859375l0.046875 0l0 -0.96875l1.0937538 0l0 6.53125q0 1.640625 -0.9218788 2.5q-0.90625 0.859375 -2.375 0.859375zm0 -3.984375q0.609375 0 1.109375 -0.296875q0.5 -0.3125 0.796875 -0.890625q0.296875 -0.578125 0.296875 -1.359375q0 -0.796875 -0.296875 -1.375q-0.296875 -0.578125 -0.796875 -0.875q-0.5 -0.296875 -1.109375 -0.296875q-0.609375 0 -1.125 0.3125q-0.5 0.296875 -0.8125 0.875q-0.296875 0.578125 -0.296875 1.359375q0 0.78125 0.296875 1.359375q0.3125 0.578125 0.8125 0.890625q0.515625 0.296875 1.125 0.296875zm5.628742 -7.15625q-0.328125 0 -0.578125 -0.234375q-0.234375 -0.25 -0.234375 -0.578125q0 -0.34375 0.234375 -0.578125q0.25 -0.234375 0.578125 -0.234375q0.359375 0 0.578125 0.234375q0.234375 0.234375 0.234375 0.578125q0 0.328125 -0.234375 0.578125q-0.21875 0.234375 -0.578125 0.234375zm-0.546875 1.25l1.125 0l0 6.796875l-1.125 0l0 -6.796875zm2.902771 0l1.078125 0l0 1.0l0.046875 0q0.28125 -0.5 0.890625 -0.859375q0.625 -0.359375 1.3125 -0.359375q1.21875 0 1.859375 0.71875q0.65625 0.71875 0.65625 1.9375l0 4.359375l-1.125 0l0 -4.1875q0 -0.9375 -0.453125 -1.359375q-0.453125 -0.4375 -1.25 -0.4375q-0.546875 0 -0.984375 0.3125q-0.421875 0.296875 -0.671875 0.796875q-0.234375 0.5 -0.234375 1.046875l0 3.828125l-1.125 0l0 -6.796875zm10.39476 9.890625q-1.203125 0 -1.984375 -0.5625q-0.78125 -0.5625 -1.046875 -1.34375l1.046875 -0.4375q0.203125 0.578125 0.734375 0.9375q0.53125 0.375 1.25 0.375q1.046875 0 1.625 -0.609375q0.578125 -0.609375 0.578125 -1.734375l0 -0.765625l-0.046875 0q-0.328125 0.53125 -0.9375 0.859375q-0.609375 0.328125 -1.375 0.328125q-0.890625 0 -1.625 -0.453125q-0.71875 -0.453125 -1.140625 -1.265625q-0.421875 -0.828125 -0.421875 -1.859375q0 -1.03125 0.421875 -1.84375q0.421875 -0.828125 1.140625 -1.28125q0.734375 -0.453125 1.625 -0.453125q0.765625 0 1.375 0.328125q0.609375 0.328125 0.9375 0.859375l0.046875 0l0 -0.96875l1.09375 0l0 6.53125q0 1.640625 -0.921875 2.5q-0.90625 0.859375 -2.375 0.859375zm0 -3.984375q0.609375 0 1.109375 -0.296875q0.5 -0.3125 0.796875 -0.890625q0.296875 -0.578125 0.296875 -1.359375q0 -0.796875 -0.296875 -1.375q-0.296875 -0.578125 -0.796875 -0.875q-0.5 -0.296875 -1.109375 -0.296875q-0.609375 0 -1.125 0.3125q-0.5 0.296875 -0.8125 0.875q-0.296875 0.578125 -0.296875 1.359375q0 0.78125 0.296875 1.359375q0.3125 0.578125 0.8125 0.890625q0.515625 0.296875 1.125 0.296875zm7.8631134 1.109375q-0.71875 0 -1.390625 -0.296875q-0.671875 -0.3125 -1.203125 -0.890625q-0.515625 -0.578125 -0.734375 -1.40625l1.078125 -0.4375q0.21875 0.859375 0.828125 1.40625q0.625 0.546875 1.453125 0.546875q0.8125 0 1.390625 -0.453125q0.578125 -0.453125 0.578125 -1.21875q0 -0.671875 -0.484375 -1.09375q-0.484375 -0.4375 -1.59375 -0.8125l-0.609375 -0.21875q-1.0 -0.359375 -1.640625 -0.9375q-0.640625 -0.59375 -0.640625 -1.625q0 -0.6875 0.359375 -1.265625q0.375 -0.578125 1.046875 -0.921875q0.671875 -0.34375 1.5 -0.34375q0.8125 0 1.421875 0.3125q0.625 0.296875 0.984375 0.734375q0.375 0.4375 0.515625 0.859375l-1.046875 0.453125q-0.15625 -0.484375 -0.625 -0.875q-0.46875 -0.40625 -1.25 -0.40625q-0.71875 0 -1.25 0.421875q-0.515625 0.40625 -0.515625 1.03125q0 0.5625 0.4375 0.921875q0.4375 0.34375 1.328125 0.640625l0.640625 0.21875q1.203125 0.4375 1.875 1.109375q0.6875 0.65625 0.6875 1.78125q0 0.921875 -0.46875 1.546875q-0.46875 0.625 -1.203125 0.921875q-0.71875 0.296875 -1.46875 0.296875zm7.7247467 0q-1.0 0 -1.796875 -0.484375q-0.796875 -0.484375 -1.25 -1.3125q-0.4375 -0.828125 -0.4375 -1.828125q0 -0.984375 0.4375 -1.8125q0.453125 -0.828125 1.25 -1.3125q0.796875 -0.484375 1.796875 -0.484375q1.0 0 1.796875 0.484375q0.8125 0.484375 1.25 1.3125q0.453125 0.828125 0.453125 1.8125q0 1.0 -0.453125 1.828125q-0.4375 0.828125 -1.25 1.3125q-0.796875 0.484375 -1.796875 0.484375zm0 -1.03125q0.625 0 1.15625 -0.3125q0.546875 -0.3125 0.875 -0.890625q0.328125 -0.59375 0.328125 -1.390625q0 -0.78125 -0.328125 -1.359375q-0.328125 -0.59375 -0.875 -0.90625q-0.53125 -0.3125 -1.15625 -0.3125q-0.625 0 -1.171875 0.3125q-0.546875 0.3125 -0.875 0.90625q-0.328125 0.578125 -0.328125 1.359375q0 0.796875 0.328125 1.390625q0.328125 0.578125 0.875 0.890625q0.546875 0.3125 1.171875 0.3125zm7.2206116 1.03125q-1.234375 0 -1.890625 -0.71875q-0.640625 -0.71875 -0.640625 -2.015625l0 -4.28125l1.140625 0l0 4.109375q0 0.96875 0.4375 1.421875q0.4375 0.453125 1.1875 0.453125q0.578125 0 1.015625 -0.296875q0.453125 -0.3125 0.6875 -0.796875q0.25 -0.5 0.25 -1.046875l0 -3.84375l1.140625 0l0 6.796875l-1.078125 0l0 -0.984375l-0.0625 0q-0.28125 0.5 -0.890625 0.859375q-0.609375 0.34375 -1.296875 0.34375zm5.008301 -7.015625l1.078125 0l0 1.09375l0.046875 0q0.203125 -0.5625 0.765625 -0.921875q0.578125 -0.375 1.203125 -0.375q0.46875 0 0.8125 0.140625l0 1.21875q-0.4375 -0.203125 -0.96875 -0.203125q-0.484375 0 -0.90625 0.28125q-0.40625 0.265625 -0.65625 0.75q-0.25 0.46875 -0.25 1.015625l0 3.796875l-1.125 0l0 -6.796875zm7.6761627 7.015625q-0.984375 0 -1.78125 -0.46875q-0.78125 -0.484375 -1.21875 -1.296875q-0.4375 -0.828125 -0.4375 -1.859375q0 -1.015625 0.4375 -1.84375q0.4375 -0.828125 1.21875 -1.296875q0.796875 -0.46875 1.78125 -0.46875q1.109375 0 1.859375 0.515625q0.75 0.515625 1.0625 1.375l-1.015625 0.421875q-0.25 -0.625 -0.75 -0.953125q-0.5 -0.328125 -1.21875 -0.328125q-0.59375 0 -1.125 0.328125q-0.515625 0.328125 -0.828125 0.921875q-0.3125 0.578125 -0.3125 1.328125q0 0.765625 0.3125 1.359375q0.3125 0.578125 0.828125 0.90625q0.53125 0.328125 1.125 0.328125q0.71875 0 1.234375 -0.328125q0.53125 -0.34375 0.78125 -0.953125l1.015625 0.421875q-0.34375 0.84375 -1.109375 1.375q-0.765625 0.515625 -1.859375 0.515625zm7.1479645 0q-0.96875 0 -1.75 -0.46875q-0.765625 -0.46875 -1.203125 -1.28125q-0.421875 -0.828125 -0.421875 -1.859375q0 -0.96875 0.40625 -1.796875q0.40625 -0.84375 1.15625 -1.328125q0.75 -0.5 1.71875 -0.5q1.0 0 1.734375 0.453125q0.734375 0.4375 1.125 1.234375q0.40625 0.78125 0.40625 1.796875q0 0.15625 -0.03125 0.34375l-5.390625 0q0.046875 0.78125 0.375 1.3125q0.328125 0.53125 0.84375 0.796875q0.515625 0.265625 1.078125 0.265625q1.328125 0 2.015625 -1.234375l0.953125 0.46875q-0.421875 0.8125 -1.1875 1.3125q-0.75 0.484375 -1.828125 0.484375zm1.96875 -4.34375q-0.03125 -0.421875 -0.25 -0.84375q-0.203125 -0.421875 -0.65625 -0.71875q-0.453125 -0.296875 -1.15625 -0.296875q-0.796875 0 -1.359375 0.515625q-0.546875 0.515625 -0.734375 1.34375l4.15625 0z" fill-rule="nonzero"/><path fill="#b6d7a8" d="m218.87384 88.1025l0 0c0 -3.8095398 3.0882416 -6.8977737 6.897766 -6.8977737l112.377686 0c1.8294067 0 3.5838623 0.7267227 4.877472 2.0203094c1.2935791 1.2935867 2.0202942 3.0480576 2.0202942 4.8774643l0 27.590271c0 3.8095398 -3.0882263 6.8977814 -6.897766 6.8977814l-112.377686 0c-3.8095245 0 -6.897766 -3.0882416 -6.897766 -6.8977814z" fill-rule="evenodd"/><path stroke="#595959" stroke-width="1.0" stroke-linejoin="round" stroke-linecap="butt" d="m218.87384 88.1025l0 0c0 -3.8095398 3.0882416 -6.8977737 6.897766 -6.8977737l112.377686 0c1.8294067 0 3.5838623 0.7267227 4.877472 2.0203094c1.2935791 1.2935867 2.0202942 3.0480576 2.0202942 4.8774643l0 27.590271c0 3.8095398 -3.0882263 6.8977814 -6.897766 6.8977814l-112.377686 0c-3.8095245 0 -6.897766 -3.0882416 -6.897766 -6.8977814z" fill-rule="evenodd"/><path fill="#000000" d="m265.61655 97.150764l3.21875 0q0.796875 0 1.46875 0.359375q0.6875 0.359375 1.09375 1.015625q0.40625 0.640625 0.40625 1.453125q0 0.8125 -0.40625 1.46875q-0.40625 0.640625 -1.09375 1.0q-0.671875 0.359375 -1.46875 0.359375l-2.078125 0l0 3.890625l-1.140625 0l0 -9.546875zm3.25 4.578125q0.53125 0 0.9375 -0.25q0.40625 -0.265625 0.625 -0.65625q0.234375 -0.40625 0.234375 -0.84375q0 -0.4375 -0.234375 -0.828125q-0.21875 -0.40625 -0.625 -0.65625q-0.40625 -0.265625 -0.9375 -0.265625l-2.109375 0l0 3.5l2.109375 0zm6.113434 5.1875q-0.75 0 -1.34375 -0.296875q-0.578125 -0.296875 -0.90625 -0.8125q-0.3125 -0.515625 -0.3125 -1.15625q0 -1.078125 0.8125 -1.6875q0.8125 -0.609375 2.046875 -0.609375q0.625 0 1.140625 0.140625q0.53125 0.125 0.8125 0.296875l0 -0.40625q0 -0.765625 -0.53125 -1.21875q-0.53125 -0.46875 -1.34375 -0.46875q-0.5625 0 -1.046875 0.25q-0.484375 0.25 -0.765625 0.6875l-0.859375 -0.640625q0.40625 -0.609375 1.109375 -0.953125q0.703125 -0.359375 1.5625 -0.359375q1.375 0 2.15625 0.734375q0.796875 0.71875 0.796875 1.96875l0 4.3125l-1.078125 0l0 -0.96875l-0.046875 0q-0.296875 0.484375 -0.890625 0.84375q-0.578125 0.34375 -1.3125 0.34375zm0.109375 -1.0q0.5625 0 1.046875 -0.296875q0.5 -0.296875 0.796875 -0.78125q0.296875 -0.5 0.296875 -1.09375q-0.328125 -0.203125 -0.796875 -0.328125q-0.453125 -0.140625 -0.984375 -0.140625q-0.921875 0 -1.40625 0.390625q-0.46875 0.375 -0.46875 0.984375q0 0.5625 0.421875 0.921875q0.4375 0.34375 1.09375 0.34375zm7.713684 3.875q-1.203125 0 -1.984375 -0.5625q-0.78125 -0.5625 -1.046875 -1.34375l1.046875 -0.4375q0.203125 0.578125 0.734375 0.9375q0.53125 0.375 1.25 0.375q1.046875 0 1.625 -0.609375q0.578125 -0.609375 0.578125 -1.734375l0 -0.765625l-0.046875 0q-0.328125 0.53125 -0.9375 0.859375q-0.609375 0.328125 -1.375 0.328125q-0.890625 0 -1.625 -0.453125q-0.71875 -0.453125 -1.140625 -1.265625q-0.421875 -0.828125 -0.421875 -1.859375q0 -1.03125 0.421875 -1.84375q0.421875 -0.828125 1.140625 -1.28125q0.734375 -0.453125 1.625 -0.453125q0.765625 0 1.375 0.328125q0.609375 0.328125 0.9375 0.859375l0.046875 0l0 -0.96875l1.09375 0l0 6.53125q0 1.640625 -0.921875 2.5q-0.90625 0.859375 -2.375 0.859375zm0 -3.984375q0.609375 0 1.109375 -0.296875q0.5 -0.3125 0.796875 -0.890625q0.296875 -0.578125 0.296875 -1.359375q0 -0.796875 -0.296875 -1.375q-0.296875 -0.578125 -0.796875 -0.875q-0.5 -0.296875 -1.109375 -0.296875q-0.609375 0 -1.125 0.3125q-0.5 0.296875 -0.8125 0.875q-0.296875 0.578125 -0.296875 1.359375q0 0.78125 0.296875 1.359375q0.3125 0.578125 0.8125 0.890625q0.515625 0.296875 1.125 0.296875zm7.9214478 1.109375q-0.96875 0 -1.75 -0.46875q-0.765625 -0.46875 -1.203125 -1.28125q-0.421875 -0.828125 -0.421875 -1.859375q0 -0.96875 0.40625 -1.796875q0.40625 -0.84375 1.15625 -1.328125q0.75 -0.5 1.71875 -0.5q1.0 0 1.734375 0.453125q0.734375 0.4375 1.125 1.234375q0.40625 0.78125 0.40625 1.796875q0 0.15625 -0.03125 0.34375l-5.390625 0q0.046875 0.78125 0.375 1.3125q0.328125 0.53125 0.84375 0.796875q0.515625 0.265625 1.078125 0.265625q1.328125 0 2.015625 -1.234375l0.953125 0.46875q-0.421875 0.8125 -1.1875 1.3125q-0.75 0.484375 -1.828125 0.484375zm1.96875 -4.34375q-0.03125 -0.421875 -0.25 -0.84375q-0.203125 -0.421875 -0.65625 -0.71875q-0.453125 -0.296875 -1.15625 -0.296875q-0.796875 0 -1.359375 0.515625q-0.546875 0.515625 -0.734375 1.34375l4.15625 0zm2.5193176 -2.671875l1.078125 0l0 1.09375l0.046875 0q0.203125 -0.5625 0.765625 -0.921875q0.578125 -0.375 1.203125 -0.375q0.46875 0 0.8125 0.140625l0 1.21875q-0.4375 -0.203125 -0.96875 -0.203125q-0.484375 0 -0.90625 0.28125q-0.40625 0.265625 -0.65625 0.75q-0.25 0.46875 -0.25 1.015625l0 3.796875l-1.125 0l0 -6.796875z" fill-rule="nonzero"/><path fill="#b6d7a8" d="m518.6063 86.77968l0 0c0 -4.174835 3.3843384 -7.559204 7.559204 -7.559204l131.14929 0c2.0048218 0 3.9275513 0.7964096 5.345154 2.214035c1.4176025 1.417633 2.2140503 3.3403397 2.2140503 5.345169l0 30.235916c0 4.174835 -3.3843994 7.5592117 -7.559204 7.5592117l-131.14929 0c-4.1748657 0 -7.559204 -3.3843765 -7.559204 -7.5592117z" fill-rule="evenodd"/><path stroke="#595959" stroke-width="1.0" stroke-linejoin="round" stroke-linecap="butt" d="m518.6063 86.77968l0 0c0 -4.174835 3.3843384 -7.559204 7.559204 -7.559204l131.14929 0c2.0048218 0 3.9275513 0.7964096 5.345154 2.214035c1.4176025 1.417633 2.2140503 3.3403397 2.2140503 5.345169l0 30.235916c0 4.174835 -3.3843994 7.5592117 -7.559204 7.5592117l-131.14929 0c-4.1748657 0 -7.559204 -3.3843765 -7.559204 -7.5592117z" fill-rule="evenodd"/><path fill="#000000" d="m534.0794 97.150764l3.21875 0q0.796875 0 1.46875 0.359375q0.6875 0.359375 1.09375 1.015625q0.40625 0.640625 0.40625 1.453125q0 0.8125 -0.40625 1.46875q-0.40625 0.640625 -1.09375 1.0q-0.671875 0.359375 -1.46875 0.359375l-2.078125 0l0 3.890625l-1.140625 0l0 -9.546875zm3.25 4.578125q0.53125 0 0.9375 -0.25q0.40625 -0.265625 0.625 -0.65625q0.234375 -0.40625 0.234375 -0.84375q0 -0.4375 -0.234375 -0.828125q-0.21875 -0.40625 -0.625 -0.65625q-0.40625 -0.265625 -0.9375 -0.265625l-2.109375 0l0 3.5l2.109375 0zm6.1134644 5.1875q-0.75 0 -1.34375 -0.296875q-0.578125 -0.296875 -0.90625 -0.8125q-0.3125 -0.515625 -0.3125 -1.15625q0 -1.078125 0.8125 -1.6875q0.8125 -0.609375 2.046875 -0.609375q0.625 0 1.140625 0.140625q0.53125 0.125 0.8125 0.296875l0 -0.40625q0 -0.765625 -0.53125 -1.21875q-0.53125 -0.46875 -1.34375 -0.46875q-0.5625 0 -1.046875 0.25q-0.484375 0.25 -0.765625 0.6875l-0.859375 -0.640625q0.40625 -0.609375 1.109375 -0.953125q0.703125 -0.359375 1.5625 -0.359375q1.375 0 2.15625 0.734375q0.796875 0.71875 0.796875 1.96875l0 4.3125l-1.078125 0l0 -0.96875l-0.046875 0q-0.296875 0.484375 -0.890625 0.84375q-0.578125 0.34375 -1.3125 0.34375zm0.109375 -1.0q0.5625 0 1.046875 -0.296875q0.5 -0.296875 0.796875 -0.78125q0.296875 -0.5 0.296875 -1.09375q-0.328125 -0.203125 -0.796875 -0.328125q-0.453125 -0.140625 -0.984375 -0.140625q-0.921875 0 -1.40625 0.390625q-0.46875 0.375 -0.46875 0.984375q0 0.5625 0.421875 0.921875q0.4375 0.34375 1.09375 0.34375zm7.713684 3.875q-1.203125 0 -1.984375 -0.5625q-0.78125 -0.5625 -1.046875 -1.34375l1.046875 -0.4375q0.203125 0.578125 0.734375 0.9375q0.53125 0.375 1.25 0.375q1.046875 0 1.625 -0.609375q0.578125 -0.609375 0.578125 -1.734375l0 -0.765625l-0.046875 0q-0.328125 0.53125 -0.9375 0.859375q-0.609375 0.328125 -1.375 0.328125q-0.890625 0 -1.625 -0.453125q-0.71875 -0.453125 -1.140625 -1.265625q-0.421875 -0.828125 -0.421875 -1.859375q0 -1.03125 0.421875 -1.84375q0.421875 -0.828125 1.140625 -1.28125q0.734375 -0.453125 1.625 -0.453125q0.765625 0 1.375 0.328125q0.609375 0.328125 0.9375 0.859375l0.046875 0l0 -0.96875l1.09375 0l0 6.53125q0 1.640625 -0.921875 2.5q-0.90625 0.859375 -2.375 0.859375zm0 -3.984375q0.609375 0 1.109375 -0.296875q0.5 -0.3125 0.796875 -0.890625q0.296875 -0.578125 0.296875 -1.359375q0 -0.796875 -0.296875 -1.375q-0.296875 -0.578125 -0.796875 -0.875q-0.5 -0.296875 -1.109375 -0.296875q-0.609375 0 -1.125 0.3125q-0.5 0.296875 -0.8125 0.875q-0.296875 0.578125 -0.296875 1.359375q0 0.78125 0.296875 1.359375q0.3125 0.578125 0.8125 0.890625q0.515625 0.296875 1.125 0.296875zm5.628723 -7.15625q-0.328125 0 -0.578125 -0.234375q-0.234375 -0.25 -0.234375 -0.578125q0 -0.34375 0.234375 -0.578125q0.25 -0.234375 0.578125 -0.234375q0.359375 0 0.578125 0.234375q0.234375 0.234375 0.234375 0.578125q0 0.328125 -0.234375 0.578125q-0.21875 0.234375 -0.578125 0.234375zm-0.546875 1.25l1.125 0l0 6.796875l-1.125 0l0 -6.796875zm2.902771 0l1.078125 0l0 1.0l0.046875 0q0.28125 -0.5 0.890625 -0.859375q0.625 -0.359375 1.3125 -0.359375q1.21875 0 1.859375 0.71875q0.65625 0.71875 0.65625 1.9375l0 4.359375l-1.125 0l0 -4.1875q0 -0.9375 -0.453125 -1.359375q-0.453125 -0.4375 -1.25 -0.4375q-0.546875 0 -0.984375 0.3125q-0.421875 0.296875 -0.671875 0.796875q-0.234375 0.5 -0.234375 1.046875l0 3.828125l-1.125 0l0 -6.796875zm10.394775 9.890625q-1.203125 0 -1.984375 -0.5625q-0.78125 -0.5625 -1.046875 -1.34375l1.046875 -0.4375q0.203125 0.578125 0.734375 0.9375q0.53125 0.375 1.25 0.375q1.046875 0 1.625 -0.609375q0.578125 -0.609375 0.578125 -1.734375l0 -0.765625l-0.046875 0q-0.328125 0.53125 -0.9375 0.859375q-0.609375 0.328125 -1.375 0.328125q-0.890625 0 -1.625 -0.453125q-0.71875 -0.453125 -1.140625 -1.265625q-0.421875 -0.828125 -0.421875 -1.859375q0 -1.03125 0.421875 -1.84375q0.421875 -0.828125 1.140625 -1.28125q0.734375 -0.453125 1.625 -0.453125q0.765625 0 1.375 0.328125q0.609375 0.328125 0.9375 0.859375l0.046875 0l0 -0.96875l1.09375 0l0 6.53125q0 1.640625 -0.921875 2.5q-0.90625 0.859375 -2.375 0.859375zm0 -3.984375q0.609375 0 1.109375 -0.296875q0.5 -0.3125 0.796875 -0.890625q0.296875 -0.578125 0.296875 -1.359375q0 -0.796875 -0.296875 -1.375q-0.296875 -0.578125 -0.796875 -0.875q-0.5 -0.296875 -1.109375 -0.296875q-0.609375 0 -1.125 0.3125q-0.5 0.296875 -0.8125 0.875q-0.296875 0.578125 -0.296875 1.359375q0 0.78125 0.296875 1.359375q0.3125 0.578125 0.8125 0.890625q0.515625 0.296875 1.125 0.296875zm5.191223 -8.65625l2.875 0q1.46875 0 2.5625 0.609375q1.09375 0.609375 1.671875 1.6875q0.59375 1.078125 0.59375 2.484375q0 1.390625 -0.59375 2.46875q-0.578125 1.078125 -1.671875 1.6875q-1.09375 0.609375 -2.5625 0.609375l-2.875 0l0 -9.546875zm2.875 8.46875q1.703125 0 2.6875 -0.96875q1.0 -0.984375 1.0 -2.71875q0 -1.75 -1.0 -2.71875q-0.984375 -0.984375 -2.6875 -0.984375l-1.734375 0l0 7.390625l1.734375 0zm8.447754 1.296875q-0.75 0 -1.34375 -0.296875q-0.578125 -0.296875 -0.90625 -0.8125q-0.3125 -0.515625 -0.3125 -1.15625q0 -1.078125 0.8125 -1.6875q0.8125 -0.609375 2.046875 -0.609375q0.625 0 1.140625 0.140625q0.53125 0.125 0.8125 0.296875l0 -0.40625q0 -0.765625 -0.53125 -1.21875q-0.53125 -0.46875 -1.34375 -0.46875q-0.5625 0 -1.046875 0.25q-0.484375 0.25 -0.765625 0.6875l-0.859375 -0.640625q0.40625 -0.609375 1.109375 -0.953125q0.703125 -0.359375 1.5625 -0.359375q1.375 0 2.15625 0.734375q0.796875 0.71875 0.796875 1.96875l0 4.3125l-1.078125 0l0 -0.96875l-0.046875 0q-0.296875 0.484375 -0.890625 0.84375q-0.578125 0.34375 -1.3125 0.34375zm0.109375 -1.0q0.5625 0 1.046875 -0.296875q0.5 -0.296875 0.796875 -0.78125q0.296875 -0.5 0.296875 -1.09375q-0.328125 -0.203125 -0.796875 -0.328125q-0.453125 -0.140625 -0.984375 -0.140625q-0.921875 0 -1.40625 0.390625q-0.46875 0.375 -0.46875 0.984375q0 0.5625 0.421875 0.921875q0.4375 0.34375 1.09375 0.34375zm7.2720337 0.890625q-0.421875 0 -0.78125 -0.125q-0.34375 -0.140625 -0.578125 -0.375q-0.53125 -0.5 -0.53125 -1.390625l0 -3.984375l-1.1875 0l0 -1.03125l1.1875 0l0 -1.921875l1.125 0l0 1.921875l1.671875 0l0 1.03125l-1.671875 0l0 3.703125q0 0.5625 0.21875 0.828125q0.25 0.28125 0.734375 0.28125q0.40625 0 0.75 -0.21875l0 1.109375q-0.203125 0.09375 -0.421875 0.125q-0.203125 0.046875 -0.515625 0.046875zm4.307251 0.109375q-0.75 0 -1.34375 -0.296875q-0.578125 -0.296875 -0.90625 -0.8125q-0.3125 -0.515625 -0.3125 -1.15625q0 -1.078125 0.8125 -1.6875q0.8125 -0.609375 2.046875 -0.609375q0.625 0 1.140625 0.140625q0.53125 0.125 0.8125 0.296875l0 -0.40625q0 -0.765625 -0.53125 -1.21875q-0.53125 -0.46875 -1.34375 -0.46875q-0.5625 0 -1.046875 0.25q-0.484375 0.25 -0.765625 0.6875l-0.859375 -0.640625q0.40625 -0.609375 1.109375 -0.953125q0.703125 -0.359375 1.5625 -0.359375q1.375 0 2.15625 0.734375q0.796875 0.71875 0.796875 1.96875l0 4.3125l-1.078125 0l0 -0.96875l-0.046875 0q-0.296875 0.484375 -0.890625 0.84375q-0.578125 0.34375 -1.3125 0.34375zm0.109375 -1.0q0.5625 0 1.046875 -0.296875q0.5 -0.296875 0.796875 -0.78125q0.296875 -0.5 0.296875 -1.09375q-0.328125 -0.203125 -0.796875 -0.328125q-0.453125 -0.140625 -0.984375 -0.140625q-0.921875 0 -1.40625 0.390625q-0.46875 0.375 -0.46875 0.984375q0 0.5625 0.421875 0.921875q0.4375 0.34375 1.09375 0.34375zm7.7803345 -8.765625l1.28125 0l3.625 9.546875l-1.25 0l-0.953125 -2.625l-4.125 0l-0.96875 2.625l-1.234375 0l3.625 -9.546875zm2.3125 5.859375l-1.28125 -3.4375l-0.375 -1.03125l-0.046875 0l-0.375 1.03125l-1.28125 3.4375l3.359375 0zm6.3235474 3.90625q-0.921875 0 -1.671875 -0.46875q-0.734375 -0.46875 -1.15625 -1.28125q-0.421875 -0.828125 -0.421875 -1.875q0 -1.015625 0.421875 -1.84375q0.421875 -0.828125 1.15625 -1.296875q0.75 -0.46875 1.671875 -0.46875q0.765625 0 1.375 0.359375q0.625 0.359375 0.9375 0.875l0.0625 0l-0.0625 -0.953125l0 -2.8125l1.140625 0l0 9.546875l-1.078125 0l0 -1.0l-0.0625 0q-0.3125 0.5 -0.9375 0.859375q-0.609375 0.359375 -1.375 0.359375zm0.125 -1.03125q0.59375 0 1.109375 -0.3125q0.515625 -0.328125 0.828125 -0.90625q0.3125 -0.59375 0.3125 -1.375q0 -0.765625 -0.3125 -1.34375q-0.3125 -0.59375 -0.828125 -0.90625q-0.515625 -0.328125 -1.109375 -0.328125q-0.59375 0 -1.125 0.328125q-0.515625 0.3125 -0.828125 0.90625q-0.3125 0.59375 -0.3125 1.34375q0 0.765625 0.3125 1.359375q0.3125 0.59375 0.828125 0.921875q0.53125 0.3125 1.125 0.3125zm7.113098 1.03125q-0.75 0 -1.34375 -0.296875q-0.578125 -0.296875 -0.90625 -0.8125q-0.3125 -0.515625 -0.3125 -1.15625q0 -1.078125 0.8125 -1.6875q0.8125 -0.609375 2.046875 -0.609375q0.625 0 1.140625 0.140625q0.53125 0.125 0.8125 0.296875l0 -0.40625q0 -0.765625 -0.53125 -1.21875q-0.53125 -0.46875 -1.34375 -0.46875q-0.5625 0 -1.046875 0.25q-0.484375 0.25 -0.765625 0.6875l-0.859375 -0.640625q0.40625 -0.609375 1.109375 -0.953125q0.703125 -0.359375 1.5625 -0.359375q1.375 0 2.15625 0.734375q0.796875 0.71875 0.796875 1.96875l0 4.3125l-1.078125 0l0 -0.96875l-0.046875 0q-0.296875 0.484375 -0.890625 0.84375q-0.578125 0.34375 -1.3125 0.34375zm0.109375 -1.0q0.5625 0 1.046875 -0.296875q0.5 -0.296875 0.796875 -0.78125q0.296875 -0.5 0.296875 -1.09375q-0.328125 -0.203125 -0.796875 -0.328125q-0.453125 -0.140625 -0.984375 -0.140625q-0.921875 0 -1.40625 0.390625q-0.46875 0.375 -0.46875 0.984375q0 0.5625 0.421875 0.921875q0.4375 0.34375 1.09375 0.34375zm4.7334595 -6.015625l1.078125 0l0 1.015625l0.0625 0q0.296875 -0.515625 0.921875 -0.875q0.625 -0.359375 1.390625 -0.359375q0.921875 0 1.65625 0.46875q0.75 0.46875 1.171875 1.296875q0.421875 0.828125 0.421875 1.84375q0 1.046875 -0.421875 1.875q-0.421875 0.8125 -1.171875 1.28125q-0.734375 0.46875 -1.65625 0.46875q-0.765625 0 -1.390625 -0.359375q-0.625 -0.359375 -0.921875 -0.859375l-0.0625 0l0.0625 0.9375l0 2.9375l-1.140625 0l0 -9.671875zm3.34375 5.984375q0.578125 0 1.09375 -0.3125q0.53125 -0.328125 0.828125 -0.90625q0.3125 -0.59375 0.3125 -1.375q0 -0.765625 -0.3125 -1.34375q-0.296875 -0.59375 -0.828125 -0.90625q-0.515625 -0.328125 -1.09375 -0.328125q-0.609375 0 -1.125 0.328125q-0.5 0.3125 -0.828125 0.90625q-0.3125 0.578125 -0.3125 1.34375q0 0.78125 0.3125 1.375q0.328125 0.578125 0.828125 0.90625q0.515625 0.3125 1.125 0.3125zm7.031616 0.921875q-0.421875 0 -0.78125 -0.125q-0.34375 -0.140625 -0.578125 -0.375q-0.53125 -0.5 -0.53125 -1.390625l0 -3.984375l-1.1875 0l0 -1.03125l1.1875 0l0 -1.921875l1.125 0l0 1.921875l1.671875 0l0 1.03125l-1.671875 0l0 3.703125q0 0.5625 0.21875 0.828125q0.25 0.28125 0.734375 0.28125q0.40625 0 0.75 -0.21875l0 1.109375q-0.203125 0.09375 -0.421875 0.125q-0.203125 0.046875 -0.515625 0.046875zm4.991028 0.109375q-0.96875 0 -1.75 -0.46875q-0.765625 -0.46875 -1.203125 -1.28125q-0.421875 -0.828125 -0.421875 -1.859375q0 -0.96875 0.40625 -1.796875q0.40625 -0.84375 1.15625 -1.328125q0.75 -0.5 1.71875 -0.5q1.0 0 1.734375 0.453125q0.734375 0.4375 1.125 1.234375q0.40625 0.78125 0.40625 1.796875q0 0.15625 -0.03125 0.34375l-5.390625 0q0.046875 0.78125 0.375 1.3125q0.328125 0.53125 0.84375 0.796875q0.515625 0.265625 1.078125 0.265625q1.328125 0 2.015625 -1.234375l0.953125 0.46875q-0.421875 0.8125 -1.1875 1.3125q-0.75 0.484375 -1.828125 0.484375zm1.96875 -4.34375q-0.03125 -0.421875 -0.25 -0.84375q-0.203125 -0.421875 -0.65625 -0.71875q-0.453125 -0.296875 -1.15625 -0.296875q-0.796875 0 -1.359375 0.515625q-0.546875 0.515625 -0.734375 1.34375l4.15625 0zm2.519287 -2.671875l1.078125 0l0 1.09375l0.046875 0q0.203125 -0.5625 0.765625 -0.921875q0.578125 -0.375 1.203125 -0.375q0.46875 0 0.8125 0.140625l0 1.21875q-0.4375 -0.203125 -0.96875 -0.203125q-0.484375 0 -0.90625 0.28125q-0.40625 0.265625 -0.65625 0.75q-0.25 0.46875 -0.25 1.015625l0 3.796875l-1.125 0l0 -6.796875z" fill-rule="nonzero"/><path fill="#000000" fill-opacity="0.0" d="m169.34645 101.896324l49.51181 0" fill-rule="evenodd"/><path stroke="#595959" stroke-width="3.0" stroke-linejoin="round" stroke-linecap="butt" d="m169.34645 101.896324l31.51181 0" fill-rule="evenodd"/><path fill="#595959" stroke="#595959" stroke-width="3.0" stroke-linecap="butt" d="m200.85826 106.851524l13.614304 -4.9552l-13.614304 -4.9551926z" fill-rule="evenodd"/><path fill="#000000" fill-opacity="0.0" d="m345.04706 101.89764l173.57483 0" fill-rule="evenodd"/><path stroke="#595959" stroke-width="3.0" stroke-linejoin="round" stroke-linecap="butt" d="m345.0471 101.89764l155.5748 0" fill-rule="evenodd"/><path fill="#595959" stroke="#595959" stroke-width="3.0" stroke-linecap="butt" d="m500.6219 106.85284l13.614319 -4.9552l-13.614319 -4.9551926z" fill-rule="evenodd"/><path fill="#b6d7a8" d="m355.31717 92.96334l0 0c0 -2.4672089 2.000061 -4.4672775 4.467285 -4.4672775l125.96307 0c1.1847839 0 2.3210754 0.47065735 3.158844 1.3084335c0.83776855 0.8377838 1.3084412 1.9740524 1.3084412 3.158844l0 17.868591c0 2.4672089 -2.000061 4.4672775 -4.467285 4.4672775l-125.96307 0l0 0c-2.4672241 0 -4.467285 -2.0000687 -4.467285 -4.4672775z" fill-rule="evenodd"/><path stroke="#595959" stroke-width="1.0" stroke-linejoin="round" stroke-linecap="butt" d="m355.31717 92.96334l0 0c0 -2.4672089 2.000061 -4.4672775 4.467285 -4.4672775l125.96307 0c1.1847839 0 2.3210754 0.47065735 3.158844 1.3084335c0.83776855 0.8377838 1.3084412 1.9740524 1.3084412 3.158844l0 17.868591c0 2.4672089 -2.000061 4.4672775 -4.467285 4.4672775l-125.96307 0l0 0c-2.4672241 0 -4.467285 -2.0000687 -4.467285 -4.4672775z" fill-rule="evenodd"/><path fill="#000000" d="m368.7637 97.150764l5.515625 0l0 1.078125l-4.375 0l0 3.265625l3.953125 0l0 1.078125l-3.953125 0l0 4.125l-1.140625 0l0 -9.546875zm6.8584595 0l1.125 0l0 9.546875l-1.125 0l0 -9.546875zm5.8705444 9.765625q-1.0 0 -1.796875 -0.484375q-0.796875 -0.484375 -1.25 -1.3125q-0.4375 -0.828125 -0.4375 -1.828125q0 -0.984375 0.4375 -1.8125q0.453125 -0.828125 1.25 -1.3125q0.796875 -0.484375 1.796875 -0.484375q1.0 0 1.796875 0.484375q0.8125 0.484375 1.25 1.3125q0.453125 0.828125 0.453125 1.8125q0 1.0 -0.453125 1.828125q-0.4375 0.828125 -1.25 1.3125q-0.796875 0.484375 -1.796875 0.484375zm0 -1.03125q0.625 0 1.15625 -0.3125q0.546875 -0.3125 0.875 -0.890625q0.328125 -0.59375 0.328125 -1.390625q0 -0.78125 -0.328125 -1.359375q-0.328125 -0.59375 -0.875 -0.90625q-0.53125 -0.3125 -1.15625 -0.3125q-0.625 0 -1.171875 0.3125q-0.546875 0.3125 -0.875 0.90625q-0.328125 0.578125 -0.328125 1.359375q0 0.796875 0.328125 1.390625q0.328125 0.578125 0.875 0.890625q0.546875 0.3125 1.171875 0.3125zm3.9352112 -5.984375l1.171875 0l1.609375 5.375l0.015625 0l1.71875 -5.375l1.15625 0l1.71875 5.359375l0.015625 0l1.609375 -5.359375l1.15625 0l-2.203125 6.796875l-1.140625 0l-1.765625 -5.421875l-1.75 5.421875l-1.125 0l-2.1875 -6.796875zm10.996521 3.59375l0 -0.828125l5.109375 -2.453125l0 1.046875l-3.921875 1.796875l0 0.0625l3.921875 1.796875l0 1.03125l-5.109375 -2.453125zm6.952179 -6.34375l3.21875 0q0.796875 0 1.46875 0.359375q0.6875 0.359375 1.09375 1.015625q0.40625 0.640625 0.40625 1.453125q0 0.8125 -0.40625 1.46875q-0.40625 0.640625 -1.09375 1.0q-0.671875 0.359375 -1.46875 0.359375l-2.078125 0l0 3.890625l-1.140625 0l0 -9.546875zm3.25 4.578125q0.53125 0 0.9375 -0.25q0.40625 -0.265625 0.625 -0.65625q0.234375 -0.40625 0.234375 -0.84375q0 -0.4375 -0.234375 -0.828125q-0.21875 -0.40625 -0.625 -0.65625q-0.40625 -0.265625 -0.9375 -0.265625l-2.109375 0l0 3.5l2.109375 0zm6.113434 5.1875q-0.75 0 -1.34375 -0.296875q-0.578125 -0.296875 -0.90625 -0.8125q-0.3125 -0.515625 -0.3125 -1.15625q0 -1.078125 0.8125 -1.6875q0.8125 -0.609375 2.046875 -0.609375q0.625 0 1.140625 0.140625q0.53125 0.125 0.8125 0.296875l0 -0.40625q0 -0.765625 -0.53125 -1.21875q-0.53125 -0.46875 -1.34375 -0.46875q-0.5625 0 -1.046875 0.25q-0.484375 0.25 -0.765625 0.6875l-0.859375 -0.640625q0.40625 -0.609375 1.109375 -0.953125q0.703125 -0.359375 1.5625 -0.359375q1.375 0 2.15625 0.734375q0.796875 0.71875 0.796875 1.96875l0 4.3125l-1.078125 0l0 -0.96875l-0.046875 0q-0.296875 0.484375 -0.890625 0.84375q-0.578125 0.34375 -1.3125 0.34375zm0.109375 -1.0q0.5625 0 1.046875 -0.296875q0.5 -0.296875 0.796875 -0.78125q0.296875 -0.5 0.296875 -1.09375q-0.328125 -0.203125 -0.796875 -0.328125q-0.453125 -0.140625 -0.984375 -0.140625q-0.921875 0 -1.40625 0.390625q-0.46875 0.375 -0.46875 0.984375q0 0.5625 0.421875 0.921875q0.4375 0.34375 1.09375 0.34375zm7.713684 3.875q-1.203125 0 -1.984375 -0.5625q-0.78125 -0.5625 -1.046875 -1.34375l1.046875 -0.4375q0.203125 0.578125 0.734375 0.9375q0.53125 0.375 1.25 0.375q1.046875 0 1.625 -0.609375q0.578125 -0.609375 0.578125 -1.734375l0 -0.765625l-0.046875 0q-0.328125 0.53125 -0.9375 0.859375q-0.609375 0.328125 -1.375 0.328125q-0.890625 0 -1.625 -0.453125q-0.71875 -0.453125 -1.140625 -1.265625q-0.421875 -0.828125 -0.421875 -1.859375q0 -1.03125 0.421875 -1.84375q0.421875 -0.828125 1.140625 -1.28125q0.734375 -0.453125 1.625 -0.453125q0.765625 0 1.375 0.328125q0.609375 0.328125 0.9375 0.859375l0.046875 0l0 -0.96875l1.09375 0l0 6.53125q0 1.640625 -0.921875 2.5q-0.90625 0.859375 -2.375 0.859375zm0 -3.984375q0.609375 0 1.109375 -0.296875q0.5 -0.3125 0.796875 -0.890625q0.296875 -0.578125 0.296875 -1.359375q0 -0.796875 -0.296875 -1.375q-0.296875 -0.578125 -0.796875 -0.875q-0.5 -0.296875 -1.109375 -0.296875q-0.609375 0 -1.125 0.3125q-0.5 0.296875 -0.8125 0.875q-0.296875 0.578125 -0.296875 1.359375q0 0.78125 0.296875 1.359375q0.3125 0.578125 0.8125 0.890625q0.515625 0.296875 1.125 0.296875zm5.628723 -7.15625q-0.328125 0 -0.578125 -0.234375q-0.234375 -0.25 -0.234375 -0.578125q0 -0.34375 0.234375 -0.578125q0.25 -0.234375 0.578125 -0.234375q0.359375 0 0.578125 0.234375q0.234375 0.234375 0.234375 0.578125q0 0.328125 -0.234375 0.578125q-0.21875 0.234375 -0.578125 0.234375zm-0.546875 1.25l1.125 0l0 6.796875l-1.125 0l0 -6.796875zm2.902771 0l1.078125 0l0 1.0l0.046875 0q0.28125 -0.5 0.890625 -0.859375q0.625 -0.359375 1.3125 -0.359375q1.21875 0 1.859375 0.71875q0.65625 0.71875 0.65625 1.9375l0 4.359375l-1.125 0l0 -4.1875q0 -0.9375 -0.453125 -1.359375q-0.453125 -0.4375 -1.25 -0.4375q-0.546875 0 -0.984375 0.3125q-0.421875 0.296875 -0.671875 0.796875q-0.234375 0.5 -0.234375 1.046875l0 3.828125l-1.125 0l0 -6.796875zm10.394775 9.890625q-1.203125 0 -1.984375 -0.5625q-0.78125 -0.5625 -1.046875 -1.34375l1.046875 -0.4375q0.203125 0.578125 0.734375 0.9375q0.53125 0.375 1.25 0.375q1.046875 0 1.625 -0.609375q0.578125 -0.609375 0.578125 -1.734375l0 -0.765625l-0.046875 0q-0.328125 0.53125 -0.9375 0.859375q-0.609375 0.328125 -1.375 0.328125q-0.890625 0 -1.625 -0.453125q-0.71875 -0.453125 -1.140625 -1.265625q-0.421875 -0.828125 -0.421875 -1.859375q0 -1.03125 0.421875 -1.84375q0.421875 -0.828125 1.140625 -1.28125q0.734375 -0.453125 1.625 -0.453125q0.765625 0 1.375 0.328125q0.609375 0.328125 0.9375 0.859375l0.046875 0l0 -0.96875l1.09375 0l0 6.53125q0 1.640625 -0.921875 2.5q-0.90625 0.859375 -2.375 0.859375zm0 -3.984375q0.609375 0 1.109375 -0.296875q0.5 -0.3125 0.796875 -0.890625q0.296875 -0.578125 0.296875 -1.359375q0 -0.796875 -0.296875 -1.375q-0.296875 -0.578125 -0.796875 -0.875q-0.5 -0.296875 -1.109375 -0.296875q-0.609375 0 -1.125 0.3125q-0.5 0.296875 -0.8125 0.875q-0.296875 0.578125 -0.296875 1.359375q0 0.78125 0.296875 1.359375q0.3125 0.578125 0.8125 0.890625q0.515625 0.296875 1.125 0.296875zm5.191223 -8.65625l2.875 0q1.46875 0 2.5625 0.609375q1.09375 0.609375 1.671875 1.6875q0.59375 1.078125 0.59375 2.484375q0 1.390625 -0.59375 2.46875q-0.578125 1.078125 -1.671875 1.6875q-1.09375 0.609375 -2.5625 0.609375l-2.875 0l0 -9.546875zm2.875 8.46875q1.703125 0 2.6875 -0.96875q1.0 -0.984375 1.0 -2.71875q0 -1.75 -1.0 -2.71875q-0.984375 -0.984375 -2.6875 -0.984375l-1.734375 0l0 7.390625l1.734375 0zm8.447784 1.296875q-0.75 0 -1.34375 -0.296875q-0.578125 -0.296875 -0.90625 -0.8125q-0.3125 -0.515625 -0.3125 -1.15625q0 -1.078125 0.8125 -1.6875q0.8125 -0.609375 2.046875 -0.609375q0.625 0 1.140625 0.140625q0.53125 0.125 0.8125 0.296875l0 -0.40625q0 -0.765625 -0.53125 -1.21875q-0.53125 -0.46875 -1.34375 -0.46875q-0.5625 0 -1.046875 0.25q-0.484375 0.25 -0.765625 0.6875l-0.859375 -0.640625q0.40625 -0.609375 1.109375 -0.953125q0.703125 -0.359375 1.5625 -0.359375q1.375 0 2.15625 0.734375q0.796875 0.71875 0.796875 1.96875l0 4.3125l-1.078125 0l0 -0.96875l-0.046875 0q-0.296875 0.484375 -0.890625 0.84375q-0.578125 0.34375 -1.3125 0.34375zm0.109375 -1.0q0.5625 0 1.046875 -0.296875q0.5 -0.296875 0.796875 -0.78125q0.296875 -0.5 0.296875 -1.09375q-0.328125 -0.203125 -0.796875 -0.328125q-0.453125 -0.140625 -0.984375 -0.140625q-0.921875 0 -1.40625 0.390625q-0.46875 0.375 -0.46875 0.984375q0 0.5625 0.421875 0.921875q0.4375 0.34375 1.09375 0.34375zm7.272003 0.890625q-0.421875 0 -0.78125 -0.125q-0.34375 -0.140625 -0.578125 -0.375q-0.53125 -0.5 -0.53125 -1.390625l0 -3.984375l-1.1875 0l0 -1.03125l1.1875 0l0 -1.921875l1.125 0l0 1.921875l1.671875 0l0 1.03125l-1.671875 0l0 3.703125q0 0.5625 0.21875 0.828125q0.25 0.28125 0.734375 0.28125q0.40625 0 0.75 -0.21875l0 1.109375q-0.203125 0.09375 -0.421875 0.125q-0.203125 0.046875 -0.515625 0.046875zm4.307251 0.109375q-0.75 0 -1.34375 -0.296875q-0.578125 -0.296875 -0.90625 -0.8125q-0.3125 -0.515625 -0.3125 -1.15625q0 -1.078125 0.8125 -1.6875q0.8125 -0.609375 2.046875 -0.609375q0.625 0 1.140625 0.140625q0.53125 0.125 0.8125 0.296875l0 -0.40625q0 -0.765625 -0.53125 -1.21875q-0.53125 -0.46875 -1.34375 -0.46875q-0.5625 0 -1.046875 0.25q-0.484375 0.25 -0.765625 0.6875l-0.859375 -0.640625q0.40625 -0.609375 1.109375 -0.953125q0.703125 -0.359375 1.5625 -0.359375q1.375 0 2.15625 0.734375q0.796875 0.71875 0.796875 1.96875l0 4.3125l-1.078125 0l0 -0.96875l-0.046875 0q-0.296875 0.484375 -0.890625 0.84375q-0.578125 0.34375 -1.3125 0.34375zm0.109375 -1.0q0.5625 0 1.046875 -0.296875q0.5 -0.296875 0.796875 -0.78125q0.296875 -0.5 0.296875 -1.09375q-0.328125 -0.203125 -0.796875 -0.328125q-0.453125 -0.140625 -0.984375 -0.140625q-0.921875 0 -1.40625 0.390625q-0.46875 0.375 -0.46875 0.984375q0 0.5625 0.421875 0.921875q0.4375 0.34375 1.09375 0.34375zm4.7334595 -1.0l3.90625 -1.796875l0 -0.0625l-3.90625 -1.796875l0 -1.046875l5.109375 2.453125l0 0.828125l-5.109375 2.453125l0 -1.03125z" fill-rule="nonzero"/><path fill="#b6d7a8" d="m17.031452 113.47389l0 0c0 -3.8095398 3.0882378 -6.8977737 6.8977757 -6.8977737l121.10208 0c1.8294067 0 3.5838776 0.7267227 4.877472 2.0203094c1.2935791 1.2935867 2.0203094 3.0480576 2.0203094 4.8774643l0 27.590271c0 3.8095398 -3.0882416 6.8977814 -6.8977814 6.8977814l-121.10208 0c-3.809538 0 -6.8977757 -3.0882416 -6.8977757 -6.8977814z" fill-rule="evenodd"/><path stroke="#595959" stroke-width="1.0" stroke-linejoin="round" stroke-linecap="butt" d="m17.031452 113.47389l0 0c0 -3.8095398 3.0882378 -6.8977737 6.8977757 -6.8977737l121.10208 0c1.8294067 0 3.5838776 0.7267227 4.877472 2.0203094c1.2935791 1.2935867 2.0203094 3.0480576 2.0203094 4.8774643l0 27.590271c0 3.8095398 -3.0882416 6.8977814 -6.8977814 6.8977814l-121.10208 0c-3.809538 0 -6.8977757 -3.0882416 -6.8977757 -6.8977814z" fill-rule="evenodd"/><path fill="#000000" d="m35.056267 122.52215l3.234375 0q0.78125 0 1.453125 0.359375q0.6875 0.359375 1.09375 1.015625q0.40625 0.640625 0.40625 1.453125q0 0.671875 -0.296875 1.25q-0.296875 0.5625 -0.828125 0.953125q-0.53125 0.390625 -1.171875 0.5156326l-0.015625 0.046875l2.6875 3.90625l0 0.046875l-1.328125 0l-2.609375 -3.890625l-1.484375 0l0 3.890625l-1.140625 0l0 -9.546883zm3.15625 4.609375q0.5 0 0.921875 -0.21875q0.4375 -0.234375 0.703125 -0.640625q0.265625 -0.40625 0.265625 -0.921875q0 -0.4375 -0.234375 -0.828125q-0.21875 -0.40625 -0.625 -0.65625q-0.40625 -0.265625 -0.9375 -0.265625l-2.109375 0l0 3.53125l2.015625 0zm7.3175507 5.1562576q-0.96875 0 -1.75 -0.46875q-0.765625 -0.46875 -1.203125 -1.28125q-0.421875 -0.828125 -0.421875 -1.859375q0 -0.9687576 0.40625 -1.7968826q0.40625 -0.84375 1.15625 -1.328125q0.75 -0.5 1.71875 -0.5q1.0 0 1.734375 0.453125q0.734375 0.4375 1.125 1.234375q0.40625 0.78125 0.40625 1.7968826q0 0.15625 -0.03125 0.34375l-5.390625 0q0.046875 0.78125 0.375 1.3125q0.328125 0.53125 0.84375 0.796875q0.515625 0.265625 1.078125 0.265625q1.328125 0 2.015625 -1.234375l0.953125 0.46875q-0.421875 0.8125 -1.1875 1.3125q-0.75 0.484375 -1.828125 0.484375zm1.96875 -4.3437576q-0.03125 -0.421875 -0.25 -0.84375q-0.203125 -0.421875 -0.65625 -0.71875q-0.453125 -0.296875 -1.15625 -0.296875q-0.796875 0 -1.359375 0.515625q-0.546875 0.515625 -0.734375 1.34375l4.15625 0zm2.519333 -2.671875l1.078125 0l0 1.0l0.046875 0q0.296875 -0.515625 0.875 -0.859375q0.59375 -0.359375 1.25 -0.359375q0.75 0 1.296875 0.359375q0.546875 0.359375 0.796875 0.96875q0.359375 -0.609375 0.953125 -0.96875q0.59375 -0.359375 1.375 -0.359375q1.171875 0 1.765625 0.71875q0.59375 0.71875 0.59375 1.9375l0 4.3593826l-1.125 0l0 -4.1875076q0 -0.9375 -0.390625 -1.359375q-0.375 -0.4375 -1.140625 -0.4375q-0.5 0 -0.921875 0.296875q-0.40625 0.296875 -0.640625 0.796875q-0.234375 0.484375 -0.234375 1.0468826l0 3.84375l-1.125 0l0 -4.1718826q0 -0.953125 -0.390625 -1.375q-0.390625 -0.4375 -1.140625 -0.4375q-0.5 0 -0.921875 0.296875q-0.40625 0.296875 -0.640625 0.796875q-0.234375 0.5 -0.234375 1.0781326l0 3.8125l-1.125 0l0 -6.7968826zm14.8004 7.0156326q-1.0 0 -1.796875 -0.484375q-0.796875 -0.484375 -1.25 -1.3125q-0.4375 -0.828125 -0.4375 -1.828125q0 -0.9843826 0.4375 -1.8125076q0.453125 -0.828125 1.25 -1.3125q0.796875 -0.484375 1.796875 -0.484375q1.0 0 1.796875 0.484375q0.8125 0.484375 1.25 1.3125q0.453125 0.828125 0.453125 1.8125076q0 1.0 -0.453125 1.828125q-0.4375 0.828125 -1.25 1.3125q-0.796875 0.484375 -1.796875 0.484375zm0 -1.03125q0.625 0 1.15625 -0.3125q0.546875 -0.3125 0.875 -0.890625q0.328125 -0.59375 0.328125 -1.390625q0 -0.7812576 -0.328125 -1.3593826q-0.328125 -0.59375 -0.875 -0.90625q-0.53125 -0.3125 -1.15625 -0.3125q-0.625 0 -1.171875 0.3125q-0.546875 0.3125 -0.875 0.90625q-0.328125 0.578125 -0.328125 1.3593826q0 0.796875 0.328125 1.390625q0.328125 0.578125 0.875 0.890625q0.546875 0.3125 1.171875 0.3125zm7.2279053 0.921875q-0.421875 0 -0.78125 -0.125q-0.34375 -0.140625 -0.578125 -0.375q-0.53125 -0.5 -0.53125 -1.390625l0 -3.9843826l-1.1875 0l0 -1.03125l1.1875 0l0 -1.921875l1.125 0l0 1.921875l1.671875 0l0 1.03125l-1.671875 0l0 3.7031326q0 0.5625 0.21875 0.828125q0.25 0.28125 0.734375 0.28125q0.40625 0 0.75 -0.21875l0 1.109375q-0.203125 0.09375 -0.421875 0.125q-0.203125 0.046875 -0.515625 0.046875zm4.9909973 0.109375q-0.96875 0 -1.75 -0.46875q-0.765625 -0.46875 -1.203125 -1.28125q-0.421875 -0.828125 -0.421875 -1.859375q0 -0.9687576 0.40625 -1.7968826q0.40625 -0.84375 1.15625 -1.328125q0.75 -0.5 1.71875 -0.5q1.0 0 1.734375 0.453125q0.734375 0.4375 1.125 1.234375q0.40625 0.78125 0.40625 1.7968826q0 0.15625 -0.03125 0.34375l-5.390625 0q0.046875 0.78125 0.375 1.3125q0.328125 0.53125 0.84375 0.796875q0.515625 0.265625 1.078125 0.265625q1.328125 0 2.015625 -1.234375l0.953125 0.46875q-0.421875 0.8125 -1.1875 1.3125q-0.75 0.484375 -1.828125 0.484375zm1.96875 -4.3437576q-0.03125 -0.421875 -0.25 -0.84375q-0.203125 -0.421875 -0.65625 -0.71875q-0.453125 -0.296875 -1.15625 -0.296875q-0.796875 0 -1.359375 0.515625q-0.546875 0.515625 -0.734375 1.34375l4.15625 0zm2.738083 -5.421875l1.640625 0l3.046875 7.8281326l0.046875 0l3.046875 -7.8281326l1.625 0l0 9.546883l-1.109375 0l0 -6.0625076l0.046875 -1.8125l-0.046875 0l-3.125 7.8750076l-0.9375 0l-3.109375 -7.8750076l-0.0625 0l0.0625 1.8125l0 6.0625076l-1.125 0l0 -9.546883zm14.205658 9.765633q-0.96875 0 -1.75 -0.46875q-0.765625 -0.46875 -1.203125 -1.28125q-0.421875 -0.828125 -0.421875 -1.859375q0 -0.9687576 0.40625 -1.7968826q0.40625 -0.84375 1.15625 -1.328125q0.75 -0.5 1.71875 -0.5q1.0 0 1.734375 0.453125q0.734375 0.4375 1.125 1.234375q0.40625 0.78125 0.40625 1.7968826q0 0.15625 -0.03125 0.34375l-5.390625 0q0.046875 0.78125 0.375 1.3125q0.328125 0.53125 0.84375 0.796875q0.515625 0.265625 1.078125 0.265625q1.328125 0 2.015625 -1.234375l0.953125 0.46875q-0.421875 0.8125 -1.1875 1.3125q-0.75 0.484375 -1.828125 0.484375zm1.96875 -4.3437576q-0.03125 -0.421875 -0.25 -0.84375q-0.203125 -0.421875 -0.65625 -0.71875q-0.453125 -0.296875 -1.15625 -0.296875q-0.796875 0 -1.359375 0.515625q-0.546875 0.515625 -0.734375 1.34375l4.15625 0zm5.4766235 4.3437576q-0.921875 0 -1.671875 -0.46875q-0.734375 -0.46875 -1.15625 -1.28125q-0.421875 -0.828125 -0.421875 -1.875q0 -1.0156326 0.421875 -1.8437576q0.421875 -0.828125 1.15625 -1.296875q0.75 -0.46875 1.671875 -0.46875q0.765625 0 1.375 0.359375q0.625 0.359375 0.9375 0.875l0.0625 0l-0.0625 -0.953125l0 -2.8125l1.140625 0l0 9.546883l-1.078125 0l0 -1.0l-0.0625 0q-0.3125 0.5 -0.9375 0.859375q-0.609375 0.359375 -1.375 0.359375zm0.125 -1.03125q0.59375 0 1.109375 -0.3125q0.515625 -0.328125 0.828125 -0.90625q0.3125 -0.59375 0.3125 -1.375q0 -0.7656326 -0.3125 -1.3437576q-0.3125 -0.59375 -0.828125 -0.90625q-0.515625 -0.328125 -1.109375 -0.328125q-0.59375 0 -1.125 0.328125q-0.515625 0.3125 -0.828125 0.90625q-0.3125 0.59375 -0.3125 1.3437576q0 0.765625 0.3125 1.359375q0.3125 0.59375 0.828125 0.921875q0.53125 0.3125 1.125 0.3125zm5.6641235 -7.2343826q-0.328125 0 -0.578125 -0.234375q-0.234375 -0.25 -0.234375 -0.578125q0 -0.34375 0.234375 -0.578125q0.25 -0.234375 0.578125 -0.234375q0.359375 0 0.578125 0.234375q0.234375 0.234375 0.234375 0.578125q0 0.328125 -0.234375 0.578125q-0.21875 0.234375 -0.578125 0.234375zm-0.546875 1.25l1.125 0l0 6.7968826l-1.125 0l0 -6.7968826zm5.0079803 7.0156326q-0.75 0 -1.34375 -0.296875q-0.578125 -0.296875 -0.90625 -0.8125q-0.3125 -0.515625 -0.3125 -1.15625q0 -1.078125 0.8125 -1.6875q0.8125 -0.6093826 2.046875 -0.6093826q0.625 0 1.140625 0.140625q0.53125 0.125 0.8125 0.29688263l0 -0.40625763q0 -0.765625 -0.53125 -1.21875q-0.53125 -0.46875 -1.34375 -0.46875q-0.5625 0 -1.046875 0.25q-0.484375 0.25 -0.765625 0.6875l-0.859375 -0.640625q0.40625 -0.609375 1.109375 -0.953125q0.703125 -0.359375 1.5625 -0.359375q1.375 0 2.15625 0.734375q0.796875 0.71875 0.796875 1.96875l0 4.3125076l-1.078125 0l0 -0.96875l-0.046875 0q-0.296875 0.484375 -0.890625 0.84375q-0.578125 0.34375 -1.3125 0.34375zm0.109375 -1.0q0.5625 0 1.046875 -0.296875q0.5 -0.296875 0.796875 -0.78125q0.296875 -0.5 0.296875 -1.09375q-0.328125 -0.203125 -0.796875 -0.328125q-0.453125 -0.140625 -0.984375 -0.140625q-0.921875 0 -1.40625 0.390625q-0.46875 0.375 -0.46875 0.984375q0 0.5625 0.421875 0.921875q0.4375 0.34375 1.09375 0.34375zm7.272003 0.890625q-0.421875 0 -0.78125 -0.125q-0.34375 -0.140625 -0.578125 -0.375q-0.53125 -0.5 -0.53125 -1.390625l0 -3.9843826l-1.1875 0l0 -1.03125l1.1875 0l0 -1.921875l1.125 0l0 1.921875l1.671875 0l0 1.03125l-1.671875 0l0 3.7031326q0 0.5625 0.21875 0.828125q0.25 0.28125 0.734375 0.28125q0.40625 0 0.75 -0.21875l0 1.109375q-0.203125 0.09375 -0.421875 0.125q-0.203125 0.046875 -0.515625 0.046875zm5.1003723 0.109375q-1.0 0 -1.796875 -0.484375q-0.796875 -0.484375 -1.25 -1.3125q-0.4375 -0.828125 -0.4375 -1.828125q0 -0.9843826 0.4375 -1.8125076q0.453125 -0.828125 1.25 -1.3125q0.796875 -0.484375 1.796875 -0.484375q1.0 0 1.796875 0.484375q0.8124924 0.484375 1.2499924 1.3125q0.453125 0.828125 0.453125 1.8125076q0 1.0 -0.453125 1.828125q-0.4375 0.828125 -1.2499924 1.3125q-0.796875 0.484375 -1.796875 0.484375zm0 -1.03125q0.625 0 1.15625 -0.3125q0.546875 -0.3125 0.8749924 -0.890625q0.328125 -0.59375 0.328125 -1.390625q0 -0.7812576 -0.328125 -1.3593826q-0.32811737 -0.59375 -0.8749924 -0.90625q-0.53125 -0.3125 -1.15625 -0.3125q-0.625 0 -1.171875 0.3125q-0.546875 0.3125 -0.875 0.90625q-0.328125 0.578125 -0.328125 1.3593826q0 0.796875 0.328125 1.390625q0.328125 0.578125 0.875 0.890625q0.546875 0.3125 1.171875 0.3125zm4.6851883 -5.9843826l1.078125 0l0 1.09375l0.046875 0q0.203125 -0.5625 0.765625 -0.921875q0.578125 -0.375 1.203125 -0.375q0.46875 0 0.8125 0.140625l0 1.21875q-0.4375 -0.203125 -0.96875 -0.203125q-0.484375 0 -0.90625 0.28125q-0.40625 0.265625 -0.65625 0.75q-0.25 0.46875 -0.25 1.0156326l0 3.796875l-1.125 0l0 -6.7968826z" fill-rule="nonzero"/><path fill="#000000" fill-opacity="0.0" d="m160.2441 55.833332l0 0c1.2070465 0 2.3646545 0.47949982 3.2181702 1.3330116c0.8535156 0.8535118 1.3330078 2.0111237 1.3330078 3.2181702l0 36.960632c0 2.5135498 2.0376434 4.551178 4.551178 4.551178l0 0c-2.5135345 0 -4.551178 2.0376358 -4.551178 4.5511856l0 36.960632c0 2.5135498 -2.0376282 4.551178 -4.551178 4.551178z" fill-rule="evenodd"/><path fill="#000000" fill-opacity="0.0" d="m160.2441 55.833332l0 0c1.2070465 0 2.3646545 0.47949982 3.2181702 1.3330116c0.8535156 0.8535118 1.3330078 2.0111237 1.3330078 3.2181702l0 36.960632c0 2.5135498 2.0376434 4.551178 4.551178 4.551178l0 0c-2.5135345 0 -4.551178 2.0376358 -4.551178 4.5511856l0 36.960632c0 2.5135498 -2.0376282 4.551178 -4.551178 4.551178" fill-rule="evenodd"/><path stroke="#595959" stroke-width="3.0" stroke-linejoin="round" stroke-linecap="butt" d="m160.2441 55.833332l0 0c1.2070465 0 2.3646545 0.47949982 3.2181702 1.3330116c0.8535156 0.8535118 1.3330078 2.0111237 1.3330078 3.2181702l0 36.960632c0 2.5135498 2.0376434 4.551178 4.551178 4.551178l0 0c-2.5135345 0 -4.551178 2.0376358 -4.551178 4.5511856l0 36.960632c0 2.5135498 -2.0376282 4.551178 -4.551178 4.551178" fill-rule="evenodd"/></g></svg>